<mxfile host="app.diagrams.net" modified="2024-04-21T20:28:19.616Z" agent="Mozilla/5.0 (Windows NT 10.0; Win64; x64) AppleWebKit/537.36 (KHTML, like Gecko) Chrome/124.0.0.0 Safari/537.36" etag="AtBsep8ZzUQoWEuYDv65" version="24.2.5" type="github">
  <diagram name="Page-1" id="Qch5MNTK3_hXIui_2PCd">
    <mxGraphModel dx="913" dy="484" grid="1" gridSize="10" guides="1" tooltips="1" connect="1" arrows="1" fold="1" page="1" pageScale="1" pageWidth="850" pageHeight="1100" math="0" shadow="0">
      <root>
        <mxCell id="0" />
        <mxCell id="1" parent="0" />
        <mxCell id="FSxBXykqfQf4pwAbegfZ-6" value="" style="edgeStyle=orthogonalEdgeStyle;rounded=0;orthogonalLoop=1;jettySize=auto;html=1;" edge="1" parent="1" source="ekis8Mb5bSGmvvZcFA3X-1" target="FSxBXykqfQf4pwAbegfZ-4">
          <mxGeometry relative="1" as="geometry" />
        </mxCell>
        <mxCell id="ekis8Mb5bSGmvvZcFA3X-1" value="&lt;font style=&quot;font-size: 10px;&quot;&gt;&amp;nbsp;Input Fraud Detection Dataset&lt;/font&gt;" style="whiteSpace=wrap;html=1;aspect=fixed;" parent="1" vertex="1">
          <mxGeometry x="130" width="70" height="70" as="geometry" />
        </mxCell>
        <mxCell id="FSxBXykqfQf4pwAbegfZ-10" value="" style="edgeStyle=orthogonalEdgeStyle;rounded=0;orthogonalLoop=1;jettySize=auto;html=1;" edge="1" parent="1" source="ekis8Mb5bSGmvvZcFA3X-6" target="ekis8Mb5bSGmvvZcFA3X-9">
          <mxGeometry relative="1" as="geometry" />
        </mxCell>
        <mxCell id="ekis8Mb5bSGmvvZcFA3X-6" value="&lt;font style=&quot;font-size: 10px;&quot;&gt;&amp;nbsp;Class Imbalance Check&lt;/font&gt;&lt;div&gt;&lt;font style=&quot;font-size: 10px;&quot;&gt;(Fraudulent Claims)&amp;nbsp;&amp;nbsp;&lt;/font&gt;&lt;br&gt;&lt;/div&gt;" style="whiteSpace=wrap;html=1;aspect=fixed;" parent="1" vertex="1">
          <mxGeometry x="40" y="180" width="70" height="70" as="geometry" />
        </mxCell>
        <mxCell id="FSxBXykqfQf4pwAbegfZ-11" value="" style="edgeStyle=orthogonalEdgeStyle;rounded=0;orthogonalLoop=1;jettySize=auto;html=1;" edge="1" parent="1" source="ekis8Mb5bSGmvvZcFA3X-7" target="ekis8Mb5bSGmvvZcFA3X-11">
          <mxGeometry relative="1" as="geometry" />
        </mxCell>
        <mxCell id="ekis8Mb5bSGmvvZcFA3X-7" value="&lt;font style=&quot;font-size: 10px;&quot;&gt;&#39;&lt;/font&gt;&lt;div&gt;&lt;font style=&quot;font-size: 10px;&quot;&gt;Class Imbalance Check&lt;/font&gt;&lt;div&gt;&lt;div&gt;&lt;font style=&quot;font-size: 10px;&quot;&gt;&amp;nbsp;(Genuine Claims)&lt;/font&gt;&lt;/div&gt;&lt;/div&gt;&lt;div&gt;&lt;br&gt;&lt;/div&gt;&lt;/div&gt;" style="whiteSpace=wrap;html=1;aspect=fixed;" parent="1" vertex="1">
          <mxGeometry x="230" y="180" width="70" height="70" as="geometry" />
        </mxCell>
        <mxCell id="FSxBXykqfQf4pwAbegfZ-13" value="" style="edgeStyle=orthogonalEdgeStyle;rounded=0;orthogonalLoop=1;jettySize=auto;html=1;" edge="1" parent="1" source="ekis8Mb5bSGmvvZcFA3X-9" target="ekis8Mb5bSGmvvZcFA3X-19">
          <mxGeometry relative="1" as="geometry" />
        </mxCell>
        <mxCell id="ekis8Mb5bSGmvvZcFA3X-9" value="&lt;font style=&quot;font-size: 10px;&quot;&gt;&amp;nbsp; Apply&lt;/font&gt;&lt;div&gt;&lt;font style=&quot;font-size: 10px;&quot;&gt;&amp;nbsp;SMOTE&amp;nbsp;&amp;nbsp;&lt;/font&gt;&lt;/div&gt;&lt;div&gt;&lt;span style=&quot;font-size: 10px; background-color: initial;&quot;&gt;Algorithm&amp;nbsp; &amp;nbsp; &amp;nbsp;&lt;/span&gt;&lt;br&gt;&lt;/div&gt;" style="whiteSpace=wrap;html=1;aspect=fixed;" parent="1" vertex="1">
          <mxGeometry x="42.5" y="280" width="67.5" height="67.5" as="geometry" />
        </mxCell>
        <mxCell id="FSxBXykqfQf4pwAbegfZ-12" value="" style="edgeStyle=orthogonalEdgeStyle;rounded=0;orthogonalLoop=1;jettySize=auto;html=1;" edge="1" parent="1" source="ekis8Mb5bSGmvvZcFA3X-11" target="ekis8Mb5bSGmvvZcFA3X-15">
          <mxGeometry relative="1" as="geometry" />
        </mxCell>
        <mxCell id="ekis8Mb5bSGmvvZcFA3X-11" value="&lt;div&gt;&lt;font style=&quot;font-size: 10px;&quot;&gt;Original Genuine Claims&lt;/font&gt;&lt;/div&gt;&lt;div&gt;&lt;br&gt;&lt;/div&gt;" style="whiteSpace=wrap;html=1;aspect=fixed;" parent="1" vertex="1">
          <mxGeometry x="230" y="320" width="70" height="70" as="geometry" />
        </mxCell>
        <mxCell id="ekis8Mb5bSGmvvZcFA3X-14" value="&lt;div&gt;&lt;font style=&quot;font-size: 10px;&quot;&gt;&amp;nbsp;Generate Synthetic Samples&lt;/font&gt;&lt;br&gt;&lt;/div&gt;" style="whiteSpace=wrap;html=1;aspect=fixed;" parent="1" vertex="1">
          <mxGeometry x="40" y="370" width="70" height="70" as="geometry" />
        </mxCell>
        <mxCell id="FSxBXykqfQf4pwAbegfZ-15" style="edgeStyle=orthogonalEdgeStyle;rounded=0;orthogonalLoop=1;jettySize=auto;html=1;entryX=0.5;entryY=0;entryDx=0;entryDy=0;" edge="1" parent="1" source="ekis8Mb5bSGmvvZcFA3X-15" target="ekis8Mb5bSGmvvZcFA3X-18">
          <mxGeometry relative="1" as="geometry" />
        </mxCell>
        <mxCell id="ekis8Mb5bSGmvvZcFA3X-15" value="&lt;div&gt;&lt;font style=&quot;font-size: 10px;&quot;&gt;Balanced Dataset&lt;/font&gt;&lt;/div&gt;&lt;div&gt;&lt;br&gt;&lt;/div&gt;" style="whiteSpace=wrap;html=1;aspect=fixed;" parent="1" vertex="1">
          <mxGeometry x="230" y="460" width="70" height="70" as="geometry" />
        </mxCell>
        <mxCell id="FSxBXykqfQf4pwAbegfZ-17" value="" style="edgeStyle=orthogonalEdgeStyle;rounded=0;orthogonalLoop=1;jettySize=auto;html=1;" edge="1" parent="1" source="ekis8Mb5bSGmvvZcFA3X-18" target="ekis8Mb5bSGmvvZcFA3X-29">
          <mxGeometry relative="1" as="geometry" />
        </mxCell>
        <mxCell id="ekis8Mb5bSGmvvZcFA3X-18" value="&lt;div&gt;&lt;font style=&quot;font-size: 10px;&quot;&gt;Train Fraud Detection Model&lt;/font&gt;&lt;/div&gt;&lt;div&gt;&lt;br&gt;&lt;/div&gt;" style="whiteSpace=wrap;html=1;aspect=fixed;" parent="1" vertex="1">
          <mxGeometry x="140" y="560" width="60" height="60" as="geometry" />
        </mxCell>
        <mxCell id="FSxBXykqfQf4pwAbegfZ-14" style="edgeStyle=orthogonalEdgeStyle;rounded=0;orthogonalLoop=1;jettySize=auto;html=1;entryX=0.5;entryY=0;entryDx=0;entryDy=0;" edge="1" parent="1" source="ekis8Mb5bSGmvvZcFA3X-19" target="ekis8Mb5bSGmvvZcFA3X-18">
          <mxGeometry relative="1" as="geometry" />
        </mxCell>
        <mxCell id="ekis8Mb5bSGmvvZcFA3X-19" value="&lt;font style=&quot;font-size: 10px;&quot;&gt;Balanced Dataset for Fraud Detection&lt;/font&gt;" style="whiteSpace=wrap;html=1;aspect=fixed;" parent="1" vertex="1">
          <mxGeometry x="40" y="460" width="70" height="70" as="geometry" />
        </mxCell>
        <mxCell id="ekis8Mb5bSGmvvZcFA3X-23" value="&lt;font style=&quot;font-size: 10px;&quot;&gt;Evaluate Model Performance&lt;/font&gt;" style="ellipse;whiteSpace=wrap;html=1;" parent="1" vertex="1">
          <mxGeometry x="135" y="640" width="75" height="60" as="geometry" />
        </mxCell>
        <mxCell id="ekis8Mb5bSGmvvZcFA3X-29" value="Output" style="rounded=1;whiteSpace=wrap;html=1;" parent="1" vertex="1">
          <mxGeometry x="135" y="720" width="80" height="40" as="geometry" />
        </mxCell>
        <mxCell id="FSxBXykqfQf4pwAbegfZ-7" style="edgeStyle=orthogonalEdgeStyle;rounded=0;orthogonalLoop=1;jettySize=auto;html=1;entryX=0.75;entryY=0;entryDx=0;entryDy=0;" edge="1" parent="1" source="FSxBXykqfQf4pwAbegfZ-4" target="ekis8Mb5bSGmvvZcFA3X-6">
          <mxGeometry relative="1" as="geometry" />
        </mxCell>
        <mxCell id="FSxBXykqfQf4pwAbegfZ-9" style="edgeStyle=orthogonalEdgeStyle;rounded=0;orthogonalLoop=1;jettySize=auto;html=1;entryX=0.25;entryY=0;entryDx=0;entryDy=0;" edge="1" parent="1" source="FSxBXykqfQf4pwAbegfZ-4" target="ekis8Mb5bSGmvvZcFA3X-7">
          <mxGeometry relative="1" as="geometry" />
        </mxCell>
        <mxCell id="FSxBXykqfQf4pwAbegfZ-4" value="&lt;br&gt;&lt;span style=&quot;color: rgb(0, 0, 0); font-family: Helvetica; font-size: 10px; font-style: normal; font-variant-ligatures: normal; font-variant-caps: normal; font-weight: 400; letter-spacing: normal; orphans: 2; text-align: center; text-indent: 0px; text-transform: none; widows: 2; word-spacing: 0px; -webkit-text-stroke-width: 0px; white-space: normal; background-color: rgb(251, 251, 251); text-decoration-thickness: initial; text-decoration-style: initial; text-decoration-color: initial; display: inline !important; float: none;&quot;&gt;&lt;br&gt;&lt;/span&gt;&lt;div&gt;&lt;span style=&quot;color: rgb(0, 0, 0); font-family: Helvetica; font-size: 10px; font-style: normal; font-variant-ligatures: normal; font-variant-caps: normal; font-weight: 400; letter-spacing: normal; orphans: 2; text-align: center; text-indent: 0px; text-transform: none; widows: 2; word-spacing: 0px; -webkit-text-stroke-width: 0px; white-space: normal; background-color: rgb(251, 251, 251); text-decoration-thickness: initial; text-decoration-style: initial; text-decoration-color: initial; display: inline !important; float: none;&quot;&gt;&amp;nbsp; Preprocessing for Fraud Detection&amp;nbsp;&lt;/span&gt;&lt;br&gt;&lt;br&gt;&lt;/div&gt;" style="ellipse;whiteSpace=wrap;html=1;" vertex="1" parent="1">
          <mxGeometry x="92.5" y="100" width="145" height="50" as="geometry" />
        </mxCell>
      </root>
    </mxGraphModel>
  </diagram>
</mxfile>
